<svg xmlns="http://www.w3.org/2000/svg" width="134.234" height="120.241" viewBox="0 0 134.234 120.241">
  <g id="Back-end_logo" data-name="Back-end logo" transform="translate(-4 -8.8)">
    <path id="Tracé_13" data-name="Tracé 13" d="M4,8.8v95.029H26.324a1.459,1.459,0,0,0,0-2.918H6.918V25.477h128.4V100.9H114.845a1.459,1.459,0,1,0,0,2.918h23.389V8.8ZM6.918,22.559V11.718h128.4V22.574H6.918Z" fill="#707070"/>
    <path id="Tracé_14" data-name="Tracé 14" d="M21.812,13.12h-.8a1.459,1.459,0,1,0,0,2.918h.8a1.459,1.459,0,1,0,0-2.918Z" transform="translate(7.138 1.983)" fill="#707070"/>
    <path id="Tracé_15" data-name="Tracé 15" d="M16.812,13.12h-.8a1.459,1.459,0,1,0,0,2.918h.8a1.459,1.459,0,1,0,0-2.918Z" transform="translate(4.843 1.983)" fill="#707070"/>
    <path id="Tracé_16" data-name="Tracé 16" d="M11.812,13.12h-.8a1.459,1.459,0,0,0,0,2.918h.8a1.459,1.459,0,1,0,0-2.918Z" transform="translate(2.548 1.983)" fill="#707070"/>
    <path id="Tracé_17" data-name="Tracé 17" d="M100.348,85.567a2.3,2.3,0,0,1,.8-3.02l6.245-3.9a5.212,5.212,0,0,0,0-8.842l-6.245-3.9a2.287,2.287,0,0,1-.8-3.02l3.473-6.507A5.2,5.2,0,0,0,99.4,48.74l-7.368-.248a2.306,2.306,0,0,1-2.218-2.218l-.248-7.368a5.2,5.2,0,0,0-7.645-4.421l-6.507,3.458a2.288,2.288,0,0,1-3.02-.817l-3.9-6.245a5.2,5.2,0,0,0-4.421-2.451h0a5.2,5.2,0,0,0-4.421,2.451l-3.9,6.245a2.31,2.31,0,0,1-3.02.817l-6.507-3.458a5.2,5.2,0,0,0-7.645,4.421l-.248,7.368a2.306,2.306,0,0,1-2.218,2.218l-7.368.248a5.2,5.2,0,0,0-4.421,7.645l3.458,6.507a2.3,2.3,0,0,1-.8,3.02l-6.245,3.9a5.212,5.212,0,0,0,0,8.842l6.245,3.9a2.287,2.287,0,0,1,.8,3.02l-3.458,6.507a5.2,5.2,0,0,0,4.421,7.645l7.368.248a2.306,2.306,0,0,1,2.218,2.218l.248,7.368a5.2,5.2,0,0,0,7.645,4.421l6.507-3.458a2.3,2.3,0,0,1,3.02.817l3.9,6.245a5.2,5.2,0,0,0,4.421,2.451h0a5.2,5.2,0,0,0,4.421-2.451l3.9-6.245a2.306,2.306,0,0,1,3.02-.817l6.507,3.458a5.2,5.2,0,0,0,7.645-4.421l.248-7.368a2.306,2.306,0,0,1,2.218-2.218L99.4,99.72a5.21,5.21,0,0,0,4.421-7.66Zm.846,10.1A2.216,2.216,0,0,1,99.283,96.8l-7.368.248a5.234,5.234,0,0,0-5.034,5.034l-.248,7.368a2.3,2.3,0,0,1-3.37,1.955l-6.507-3.473a5.236,5.236,0,0,0-6.872,1.838l-3.867,6.259a2.284,2.284,0,0,1-3.881,0l-3.9-6.245a5.211,5.211,0,0,0-4.436-2.451,5.034,5.034,0,0,0-2.437.613l-6.507,3.458a2.229,2.229,0,0,1-2.218-.044,2.261,2.261,0,0,1-1.153-1.911l-.248-7.368a5.234,5.234,0,0,0-5.034-5.034L28.839,96.8a2.265,2.265,0,0,1-1.911-1.138,2.23,2.23,0,0,1-.044-2.218l3.458-6.507A5.222,5.222,0,0,0,28.5,80.066l-6.245-3.9a2.284,2.284,0,0,1,0-3.881l6.245-3.9a5.222,5.222,0,0,0,1.838-6.872l-3.458-6.507a2.287,2.287,0,0,1,1.955-3.356l7.368-.248a5.234,5.234,0,0,0,5.034-5.034l.248-7.368A2.28,2.28,0,0,1,42.642,37.1a2.229,2.229,0,0,1,2.218-.044l6.507,3.458a5.225,5.225,0,0,0,6.872-1.838l3.9-6.245a2.284,2.284,0,0,1,3.881,0l3.9,6.245a5.222,5.222,0,0,0,6.872,1.838l6.507-3.458a2.287,2.287,0,0,1,3.356,1.955l.248,7.368a5.234,5.234,0,0,0,5.034,5.034l7.368.248a2.265,2.265,0,0,1,1.911,1.138,2.23,2.23,0,0,1,.044,2.218L97.78,61.522a5.222,5.222,0,0,0,1.838,6.872l6.245,3.9a2.284,2.284,0,0,1,0,3.881l-6.245,3.9a5.222,5.222,0,0,0-1.838,6.872l3.473,6.507A2.266,2.266,0,0,1,101.194,95.664Z" transform="translate(6.56 9.011)" fill="#707070"/>
    <path id="Tracé_18" data-name="Tracé 18" d="M57.68,42.35A25.49,25.49,0,1,0,83.17,67.84,25.524,25.524,0,0,0,57.68,42.35ZM35.123,67.84A22.572,22.572,0,1,1,57.694,90.411,22.6,22.6,0,0,1,35.123,67.84Z" transform="translate(12.941 15.402)" fill="#707070"/>
  </g>
</svg>
