<svg id="noun_design_476609" xmlns="http://www.w3.org/2000/svg" width="98.866" height="99.674" viewBox="0 0 98.866 99.674">
  <path id="Tracé_2" data-name="Tracé 2" d="M61.844,44.055c-.028-.012-.058-.016-.086-.026l0-.009-26.476-10.9a2.4,2.4,0,0,0-1.789.126l-17.491,10.9v0s.352,0,.347.006c-.445.287-.35.779-.35,1.305v21.8a1.555,1.555,0,0,0,.925,1.423L44.961,81.145a1.516,1.516,0,0,0,1.107.055c.051-.017.1-.045.148-.067a1.549,1.549,0,0,0,.226-.1c.026-.017.047-.042.072-.061a.576.576,0,0,0,.053-.03L62.141,68.48a1.564,1.564,0,0,0,.584-1.218v-21.8A1.559,1.559,0,0,0,61.844,44.055Zm-27-7.751,23.286,9.589L45.362,56.11l-24.515-10.9ZM19.118,47.855,44.036,58.93v18.4L19.118,66.253ZM59.61,66.515,47.151,76.48V58.665L59.61,48.7Z" transform="translate(8.915 18.395)" fill="#707070"/>
  <path id="Tracé_3" data-name="Tracé 3" d="M17.131,0H1.557A1.557,1.557,0,0,0,0,1.557V98.116a1.556,1.556,0,0,0,1.557,1.557H10.9a7.8,7.8,0,0,0,7.787-7.787V1.557A1.557,1.557,0,0,0,17.131,0ZM15.574,91.887A4.678,4.678,0,0,1,10.9,96.559H3.115V91.887h6.23V88.772H3.115V85.657H6.23V82.542H3.115V79.427H6.23V76.313H3.115V73.2H6.23V70.083H3.115V66.968h6.23V63.853H3.115V60.739H6.23V57.624H3.115V54.509H6.23V51.394H3.115V48.279H6.23V45.165H3.115V42.05H6.23V38.935H3.115V35.82h6.23V32.705H3.115V29.591H6.23V26.476H3.115V23.361H6.23V20.246H3.115V17.131H6.23V14.017H3.115V10.9H6.23V7.787H3.115V3.115H15.574Z" transform="translate(0 0.001)" fill="#707070"/>
  <path id="Tracé_4" data-name="Tracé 4" d="M17.814,57.594a1.513,1.513,0,0,0,.3.03,1.558,1.558,0,0,0,1.325-.738L36.631,29.117,54.176,56.9a1.554,1.554,0,0,0,1.316.726,1.49,1.49,0,0,0,.308-.031,1.558,1.558,0,0,0,1.227-1.271l1.557-9.344a1.561,1.561,0,0,0-.193-1.045L42.935,19.654a5.84,5.84,0,0,0-1.459-5.043V4.672a4.672,4.672,0,1,0-9.344,0v9.939a5.844,5.844,0,0,0-1.459,5.044L15.215,45.934a1.561,1.561,0,0,0-.193,1.045l1.557,9.344A1.557,1.557,0,0,0,17.814,57.594ZM36.8,15.574a3.115,3.115,0,1,1-3.115,3.115A3.118,3.118,0,0,1,36.8,15.574Zm18.617,31.45-.793,4.758L38.454,26.54l1.232-1.621h0c.595-1.557,1.14-1.073,1.6-1.553ZM36.8,3.115a1.559,1.559,0,0,1,1.557,1.557V12.68a5.594,5.594,0,0,0-3.115,0V4.672A1.559,1.559,0,0,1,36.8,3.115ZM32.321,23A6.2,6.2,0,0,0,35.637,24.8L18.97,51.726l-.783-4.7Z" transform="translate(8.361 0.001)" fill="#707070"/>
  <path id="Tracé_5" data-name="Tracé 5" d="M68.184,10.148c-2.634-4.06-6.645-7.239-12.62-10a1.558,1.558,0,0,0-1.88,2.375c1.455,1.85,1.071,4.431.5,6.267a29.454,29.454,0,0,1-2,4.5c-.486.948-.969,1.9-1.4,2.87a12.531,12.531,0,0,0-1.219,4.937c-.009,3.42,1.92,6.54,3.742,8.961L51.8,49.715a1.236,1.236,0,0,0,0,.17L53.2,93.5a6.383,6.383,0,0,0,12.76,0l1.406-43.61a1.236,1.236,0,0,0,0-.17L65.9,30.6a8.673,8.673,0,0,0,3.893-4.017C72.187,21.665,71.571,15.367,68.184,10.148ZM57.155,9.717a12.558,12.558,0,0,0,.615-4.929,22.3,22.3,0,0,1,7.8,7.055,15.924,15.924,0,0,1,1.979,4.464l-.181.181L63.8,12.916a1.556,1.556,0,0,0-2.2,0l-3.571,3.571-2.635-2.635A27.3,27.3,0,0,0,57.155,9.717Zm5.7,83.681a3.269,3.269,0,0,1-6.535,0l-1.4-43.525,1.441-18.725h6.46l1.441,18.723Zm4.136-68.174c-.677,1.394-1.775,2.81-3.02,2.81H55.687a11.767,11.767,0,0,1-3-6.929,9.3,9.3,0,0,1,.958-3.7c.09-.2.2-.4.294-.6l2.987,2.987a1.556,1.556,0,0,0,2.2,0l3.571-3.57L66.27,19.79a1.486,1.486,0,0,0,1.813.259A11.636,11.636,0,0,1,66.988,25.224Z" transform="translate(27.63 0)" fill="#707070"/>
</svg>
