<svg xmlns="http://www.w3.org/2000/svg" width="132.952" height="98.742" viewBox="0 0 132.952 98.742">
  <g id="front-end_Logo" data-name="front-end Logo" transform="translate(-7.5 -18.436)">
    <path id="Tracé_6" data-name="Tracé 6" d="M135.61,18.436H12.341A4.847,4.847,0,0,0,7.5,23.277v89.06a4.847,4.847,0,0,0,4.841,4.841h123.27a4.846,4.846,0,0,0,4.841-4.841V23.275A4.847,4.847,0,0,0,135.61,18.436ZM12.341,20.371h123.27a2.909,2.909,0,0,1,2.9,2.9V37.47a2.01,2.01,0,0,0-.324-.033H9.759a2.162,2.162,0,0,0-.322.033V23.275A2.908,2.908,0,0,1,12.341,20.371ZM9.436,39.7a.323.323,0,0,1,.322-.322H138.191a.323.323,0,0,1,.324.322v70.561a.324.324,0,0,1-.324.322H9.759a.324.324,0,0,1-.322-.322ZM135.61,115.24H12.341a2.9,2.9,0,0,1-2.889-2.756,2.45,2.45,0,0,0,.307.031H138.191a2.447,2.447,0,0,0,.308-.031A2.9,2.9,0,0,1,135.61,115.24Z" transform="translate(0 0)" fill="#707070"/>
    <path id="Tracé_7" data-name="Tracé 7" d="M29.662,30.756a4.115,4.115,0,1,0-4.115-4.115A4.12,4.12,0,0,0,29.662,30.756Zm0-6.292a2.179,2.179,0,1,1-2.179,2.179A2.182,2.182,0,0,1,29.662,24.464Z" transform="translate(10.181 2.307)" fill="#707070"/>
    <path id="Tracé_8" data-name="Tracé 8" d="M22.942,30.756a4.115,4.115,0,1,0-4.114-4.115A4.12,4.12,0,0,0,22.942,30.756Zm0-6.292a2.179,2.179,0,1,1-2.179,2.179A2.18,2.18,0,0,1,22.942,24.464Z" transform="translate(6.39 2.307)" fill="#707070"/>
    <path id="Tracé_9" data-name="Tracé 9" d="M16.222,30.756a4.115,4.115,0,1,0-4.114-4.115A4.12,4.12,0,0,0,16.222,30.756Zm0-6.292a2.179,2.179,0,1,1-2.179,2.179A2.181,2.181,0,0,1,16.222,24.464Z" transform="translate(2.599 2.307)" fill="#707070"/>
    <path id="Tracé_10" data-name="Tracé 10" d="M74.57,62.573,62.255,74.914c-1.406,1.516-.613,2.747,1.7,4.932,1.276,1.209,2.382,1.822,3.289,1.822a1.943,1.943,0,0,0,1.384-.593l16.658-16.65a3.2,3.2,0,0,0,.658-2.234,2.4,2.4,0,0,0-.824-1.655L68.546,43.983a2.2,2.2,0,0,0-1.523-.766c-1.023,0-2.041,1.015-3.231,2.205A10.01,10.01,0,0,0,61.7,47.95a1.868,1.868,0,0,0,.585,2.321Zm-9.394-15.8a11.445,11.445,0,0,1,1.807-1.594,1.54,1.54,0,0,1,.194.17L83.818,61.971a.51.51,0,0,1,.194.394,1.473,1.473,0,0,1-.156.752L67.248,79.728l-.008.968v-.968c-.006,0-.608-.016-1.957-1.292a10.275,10.275,0,0,1-1.8-1.977,1.188,1.188,0,0,1,.169-.208L77.305,62.568,63.652,48.9a1.49,1.49,0,0,1-.17-.2A10.637,10.637,0,0,1,65.176,46.777Z" transform="translate(30.468 13.98)" fill="#707070"/>
    <path id="Tracé_11" data-name="Tracé 11" d="M40.211,81.092a1.921,1.921,0,0,0,1.365.576c.9,0,2.011-.613,3.289-1.822,2.309-2.185,3.1-3.418,1.669-4.957L34.247,62.573l12.286-12.3a1.871,1.871,0,0,0,.588-2.316,10.1,10.1,0,0,0-2.108-2.542c-1.178-1.179-2.194-2.2-3.221-2.2a2.189,2.189,0,0,0-1.523.766l-16.5,16.491a2.455,2.455,0,0,0-.892,1.721,3.22,3.22,0,0,0,.715,2.295ZM25.068,61.909,41.64,45.353a1.605,1.605,0,0,1,.192-.169,11.4,11.4,0,0,1,1.814,1.6,10.907,10.907,0,0,1,1.688,1.927,1.812,1.812,0,0,1-.169.191L31.512,62.569l13.63,13.658c.1.113.147.178.172.166-.042.145-.3.643-1.78,2.043-1.35,1.276-1.95,1.292-1.957,1.292L25.019,63.184a1.339,1.339,0,0,1-.216-.815A.6.6,0,0,1,25.068,61.909Z" transform="translate(8.668 13.98)" fill="#707070"/>
    <path id="Tracé_12" data-name="Tracé 12" d="M44.455,85.99a7.75,7.75,0,0,0,3.122,1.015A2.161,2.161,0,0,0,49.6,85.588l19.66-40.3c1.018-2.088-.371-3.3-2.769-4.464a7.39,7.39,0,0,0-3.034-.937,2.313,2.313,0,0,0-2.188,1.5l-19.658,40.3a2.185,2.185,0,0,0,.025,2.345A7.074,7.074,0,0,0,44.455,85.99Zm-1.107-3.452L63,42.243c.2-.419.257-.419.449-.419a5.689,5.689,0,0,1,2.185.741c2.255,1.1,2.079,1.461,1.877,1.877l-19.66,40.3a1.3,1.3,0,0,1-.192.322.35.35,0,0,1-.088.008,6.868,6.868,0,0,1-2.273-.818c-1.861-.91-2.076-1.286-2.1-1.336A1.216,1.216,0,0,1,43.348,82.538Z" transform="translate(19.05 12.102)" fill="#707070"/>
  </g>
</svg>
