<svg xmlns="http://www.w3.org/2000/svg" width="101.305" height="99" viewBox="0 0 101.305 99">
  <g id="Others_logo" data-name="Others logo" transform="translate(1191.4 1852.6)">
    <g id="Groupe_283" data-name="Groupe 283" transform="translate(-1191.279 -1852.6)">
      <path id="Tracé_373" data-name="Tracé 373" d="M47.2,50.323H4.126L1.7,47.9V4.826L4.126,2.4H47.2l2.426,2.426V47.9Zm-42.221-3.4h41.25V5.676H4.976v41.25Z" transform="translate(-1.7 -2.4)" fill="#707070"/>
    </g>
    <g id="Groupe_284" data-name="Groupe 284" transform="translate(-1138.018 -1852.6)">
      <path id="Tracé_374" data-name="Tracé 374" d="M91.1,50.323H48.026L45.6,47.9V4.826L48.026,2.4H91.1l2.426,2.426V47.9ZM48.876,47.047H90.247V5.676H48.876Z" transform="translate(-45.6 -2.4)" fill="#707070"/>
    </g>
    <g id="Groupe_285" data-name="Groupe 285" transform="translate(-1191.4 -1801.523)">
      <path id="Tracé_375" data-name="Tracé 375" d="M47.1,92.423H4.026L1.6,90V46.926L4.026,44.5H47.1l2.426,2.426V90ZM4.754,89.147H46.247V47.654H4.754Z" transform="translate(-1.6 -44.5)" fill="#707070"/>
    </g>
    <g id="Groupe_286" data-name="Groupe 286" transform="translate(-1138.139 -1801.523)">
      <path id="Tracé_376" data-name="Tracé 376" d="M91,92.423H47.926L45.5,90V46.926L47.926,44.5H91l2.426,2.426V90Zm-42.1-3.4H89.9V47.9H48.9Z" transform="translate(-45.5 -44.5)" fill="#707070"/>
    </g>
  </g>
</svg>
