<svg xmlns="http://www.w3.org/2000/svg" width="46.886" height="46.886" viewBox="0 0 46.886 46.886">
  <path id="linkedin-icon" d="M29.968,7.025A22.943,22.943,0,1,0,52.911,29.968,22.943,22.943,0,0,0,29.968,7.025ZM23.847,41.06H18.809V24.786h5.037ZM21.3,22.654a3,3,0,1,1,2.979-3A2.991,2.991,0,0,1,21.3,22.654ZM42.725,41.06H37.712V32.517c0-2.343-.89-3.651-2.743-3.651-2.016,0-3.07,1.362-3.07,3.651V41.06H27.068V24.786H31.9v2.192a5.676,5.676,0,0,1,4.9-2.688c3.451,0,5.921,2.107,5.921,6.466v10.3Z" transform="translate(-6.525 -6.525)" fill="none" stroke="#403934" stroke-width="1"/>
</svg>
